<svg xmlns="http://www.w3.org/2000/svg" viewBox="0 0 164.882 166.25"><title>pizza10</title><path d="M145.537,169.53c-.435.286-.875.566-1.316.844C144.662,170.1,145.1,169.816,145.537,169.53Z" transform="translate(-16.875 -16.875)" style="fill:none"/><path d="M148.563,167.444c-.386.279-.773.556-1.165.829C147.79,168,148.177,167.723,148.563,167.444Z" transform="translate(-16.875 -16.875)" style="fill:none"/><path d="M151.424,165.284c-.319.251-.635.5-.957.752C150.789,165.789,151.1,165.535,151.424,165.284Z" transform="translate(-16.875 -16.875)" style="fill:none"/><path d="M154.005,163.165c-.2.167-.387.34-.584.506C153.618,163.505,153.809,163.332,154.005,163.165Z" transform="translate(-16.875 -16.875)" style="fill:none"/><path d="M142.382,171.505c-.48.286-.968.561-1.455.837C141.414,172.066,141.9,171.791,142.382,171.505Z" transform="translate(-16.875 -16.875)" style="fill:none"/><path d="M135.747,175.06c-.706.336-1.424.65-2.141.967C134.323,175.71,135.041,175.4,135.747,175.06Z" transform="translate(-16.875 -16.875)" style="fill:none"/><path d="M139.116,173.352c-.536.286-1.082.557-1.625.832C138.034,173.909,138.58,173.638,139.116,173.352Z" transform="translate(-16.875 -16.875)" style="fill:none"/><path d="M153.06,36.017c.475.394.934.808,1.4,1.213C153.994,36.825,153.536,36.411,153.06,36.017Z" transform="translate(-16.875 -16.875)" style="fill:none"/><polygon points="164.882 98.081 164.882 98.081 164.882 98.081 164.882 98.081" style="fill:none"/><path d="M131.327,177c-.827.337-1.654.673-2.494.984C129.673,177.671,130.5,177.335,131.327,177Z" transform="translate(-16.875 -16.875)" style="fill:none"/><path d="M169.974,144.846l-.171.267Z" transform="translate(-16.875 -16.875)" style="fill:none"/><path d="M165.849,150.7c-.078.1-.159.2-.238.3C165.69,150.906,165.771,150.806,165.849,150.7Z" transform="translate(-16.875 -16.875)" style="fill:none"/><path d="M168,147.789c-.083.118-.167.234-.25.352C167.828,148.023,167.912,147.907,168,147.789Z" transform="translate(-16.875 -16.875)" style="fill:none"/><path d="M163.552,153.558l-.014.016Z" transform="translate(-16.875 -16.875)" style="fill:none"/><path d="M133.2,23.791q.921.4,1.83.827Q134.123,24.194,133.2,23.791Z" transform="translate(-16.875 -16.875)" style="fill:none"/><path d="M136.768,25.446c.593.293,1.178.6,1.762.9C137.946,26.042,137.361,25.739,136.768,25.446Z" transform="translate(-16.875 -16.875)" style="fill:none"/><path d="M127.322,178.507c-.717.249-1.433.5-2.159.73C125.889,179.007,126.605,178.757,127.322,178.507Z" transform="translate(-16.875 -16.875)" style="fill:none"/><path d="M125.8,20.977c.661.216,1.32.436,1.974.668C127.117,21.413,126.459,21.193,125.8,20.977Z" transform="translate(-16.875 -16.875)" style="fill:none"/><path d="M121.962,19.829c.687.188,1.372.378,2.052.583C123.334,20.207,122.649,20.017,121.962,19.829Z" transform="translate(-16.875 -16.875)" style="fill:none"/><path d="M140.236,27.26c.571.317,1.134.646,1.7.976C141.37,27.906,140.807,27.577,140.236,27.26Z" transform="translate(-16.875 -16.875)" style="fill:none"/><path d="M146.867,31.349c.524.359,1.037.734,1.552,1.1C147.9,32.083,147.391,31.708,146.867,31.349Z" transform="translate(-16.875 -16.875)" style="fill:none"/><path d="M150.02,33.613c.5.378.988.774,1.48,1.163C151.008,34.387,150.521,33.991,150.02,33.613Z" transform="translate(-16.875 -16.875)" style="fill:none"/><path d="M143.6,29.229c.548.339,1.086.692,1.626,1.043C144.689,29.921,144.151,29.568,143.6,29.229Z" transform="translate(-16.875 -16.875)" style="fill:none"/><path d="M118.041,18.861c.714.158,1.429.317,2.136.493C119.47,19.178,118.756,19.019,118.041,18.861Z" transform="translate(-16.875 -16.875)" style="fill:none"/><path d="M129.545,22.3q.956.363,1.9.75Q130.5,22.662,129.545,22.3Z" transform="translate(-16.875 -16.875)" style="fill:none"/><path d="M115.921,181.585q-1.125.217-2.26.4Q114.8,181.8,115.921,181.585Z" transform="translate(-16.875 -16.875)" style="fill:none"/><path d="M108.064,182.729c-.888.085-1.783.146-2.679.2C106.281,182.875,107.176,182.815,108.064,182.729Z" transform="translate(-16.875 -16.875)" style="fill:none"/><path d="M112.021,182.248c-.794.115-1.592.212-2.393.3C110.429,182.46,111.227,182.363,112.021,182.248Z" transform="translate(-16.875 -16.875)" style="fill:none"/><path d="M123.558,179.717c-.712.211-1.425.418-2.145.61C122.133,180.135,122.846,179.928,123.558,179.717Z" transform="translate(-16.875 -16.875)" style="fill:none"/><path d="M119.766,180.741q-1.088.266-2.185.5Q118.681,181.008,119.766,180.741Z" transform="translate(-16.875 -16.875)" style="fill:none"/><path d="M109.891,17.481c.8.095,1.6.187,2.4.3C111.5,17.668,110.693,17.576,109.891,17.481Z" transform="translate(-16.875 -16.875)" style="fill:none"/><path d="M100,16.875q2.09,0,4.153.105Q102.089,16.878,100,16.875Z" transform="translate(-16.875 -16.875)" style="fill:none"/><path d="M104.057,183.022c-1.345.065-2.7.1-4.057.1C101.361,183.125,102.712,183.087,104.057,183.022Z" transform="translate(-16.875 -16.875)" style="fill:none"/><path d="M105.534,17.079c.908.059,1.817.118,2.717.206C107.351,17.2,106.442,17.138,105.534,17.079Z" transform="translate(-16.875 -16.875)" style="fill:none"/><path d="M114.024,18.077c.751.127,1.5.253,2.245.4C115.526,18.33,114.775,18.2,114.024,18.077Z" transform="translate(-16.875 -16.875)" style="fill:none"/><path d="M180,115c-.514,0-1.024-.02-1.534-.039-2.737,5.988-6.088,12.035-7.456,14.451a178.34,178.34,0,0,1-6.494,19.407l-2.96-1.252c-.525,1.337-1.063,2.6-1.605,3.76l2.571,1.229a24.746,24.746,0,0,1-2.935,4.927l-2.192-1.79c-.151.184-.3.351-.451.5a10.226,10.226,0,0,1-1.451,1.159l1.625,2.348a34.86,34.86,0,0,1-4.832,2.687l-1.237-2.619c-1.124.519-2.332,1.033-3.588,1.536l1.358,3.212a178.34,178.34,0,0,1-19.407,6.494,178.286,178.286,0,0,1-18.312,9.13l-1.208-2.979c-1.316.575-2.593,1.091-3.793,1.524l.949,2.687a24.639,24.639,0,0,1-5.561,1.408l-.283-2.815q-.355.035-.673.035a10.264,10.264,0,0,1-1.845-.207l-.51,2.81a34.362,34.362,0,0,1-5.317-1.516l.976-2.728c-1.161-.427-2.38-.918-3.624-1.451L88.9,180.14a178.218,178.218,0,0,1-18.313-9.13,178.269,178.269,0,0,1-19.407-6.494l1.253-2.96c-1.338-.525-2.6-1.063-3.761-1.605l-1.229,2.571a24.734,24.734,0,0,1-4.926-2.935l1.789-2.192c-.183-.151-.351-.3-.5-.451a10.226,10.226,0,0,1-1.159-1.451L40.3,157.119a34.012,34.012,0,0,1-2.688-4.834l2.619-1.236c-.519-1.124-1.033-2.332-1.536-3.588l-3.212,1.358a178.02,178.02,0,0,1-6.492-19.4A178.08,178.08,0,0,1,19.86,111.1l2.979-1.209c-.575-1.315-1.091-2.592-1.524-3.792l-2.686.95a24.73,24.73,0,0,1-1.41-5.561l2.816-.284q-.034-.355-.035-.673a10.174,10.174,0,0,1,.207-1.845l-2.811-.51a34.29,34.29,0,0,1,1.518-5.319l2.727.978c.427-1.161.918-2.379,1.45-3.624L19.86,88.9a178.01,178.01,0,0,1,9.131-18.314,178.144,178.144,0,0,1,6.493-19.406l2.96,1.252c.525-1.337,1.063-2.6,1.6-3.76l-2.571-1.228a24.717,24.717,0,0,1,2.935-4.927L42.6,44.307c.152-.183.3-.351.452-.5a10.183,10.183,0,0,1,1.452-1.159L42.881,40.3a34.157,34.157,0,0,1,4.833-2.687l1.237,2.619c1.124-.519,2.332-1.033,3.589-1.537l-1.359-3.211a178.144,178.144,0,0,1,19.406-6.493A178.01,178.01,0,0,1,88.9,19.86l1.208,2.979c1.316-.575,2.593-1.091,3.794-1.525l-.95-2.686a24.69,24.69,0,0,1,5.561-1.409l.283,2.816c.236-.023.461-.035.672-.035a10.154,10.154,0,0,1,1.844.207l.51-2.811a34.3,34.3,0,0,1,5.32,1.518l-.977,2.727c1.161.427,2.379.918,3.623,1.45L111.1,19.86a178.08,178.08,0,0,1,18.314,9.132,178.02,178.02,0,0,1,19.405,6.492l-1.252,2.96c1.337.525,2.6,1.063,3.761,1.6l1.227-2.571c1.084.518,2.03,1.017,2.849,1.5.194-.14.38-.291.577-.428-.5-.453-1.013-.884-1.52-1.325-.467-.4-.926-.819-1.4-1.213-.511-.425-1.039-.829-1.56-1.241-.492-.389-.979-.785-1.48-1.163-.526-.4-1.065-.775-1.6-1.16-.515-.37-1.028-.745-1.552-1.1s-1.09-.721-1.638-1.077-1.078-.7-1.626-1.043-1.111-.665-1.671-.993-1.125-.659-1.7-.976-1.135-.612-1.706-.912-1.169-.609-1.762-.9c-.573-.284-1.153-.557-1.734-.828q-.911-.423-1.83-.827-.875-.382-1.758-.742-.945-.387-1.9-.75-.883-.336-1.774-.654c-.654-.232-1.313-.452-1.974-.668-.592-.193-1.185-.385-1.783-.565-.68-.2-1.365-.395-2.052-.583-.594-.162-1.186-.325-1.785-.475-.707-.176-1.422-.335-2.136-.493-.59-.13-1.178-.266-1.772-.384-.743-.147-1.494-.273-2.245-.4-.577-.1-1.152-.205-1.733-.291-.8-.118-1.6-.21-2.4-.3-.547-.065-1.09-.142-1.64-.2-.9-.088-1.809-.147-2.717-.206-.461-.031-.918-.076-1.381-.1q-2.064-.1-4.153-.105a83.125,83.125,0,0,0,0,166.25c1.361,0,2.712-.038,4.057-.1.445-.021.885-.061,1.328-.089.9-.058,1.791-.119,2.679-.2.524-.051,1.043-.116,1.564-.177.8-.092,1.6-.189,2.393-.3.549-.079,1.094-.169,1.64-.26q1.134-.187,2.26-.4.832-.162,1.66-.34,1.1-.237,2.185-.5c.551-.135,1.1-.269,1.647-.414.72-.192,1.433-.4,2.145-.61.536-.158,1.074-.311,1.6-.48.726-.23,1.442-.481,2.159-.73.5-.175,1.012-.34,1.511-.525.84-.311,1.667-.647,2.494-.984q1.149-.468,2.279-.971c.717-.317,1.435-.631,2.141-.967.588-.281,1.164-.582,1.744-.876.543-.275,1.089-.546,1.625-.832.61-.327,1.21-.669,1.811-1.01.487-.276.975-.551,1.455-.837.619-.368,1.23-.747,1.839-1.131.441-.278.881-.558,1.316-.844q.94-.617,1.861-1.257c.392-.273.779-.55,1.165-.829.64-.462,1.278-.928,1.9-1.408.322-.247.638-.5.957-.752.672-.53,1.342-1.063,2-1.613.2-.166.388-.339.584-.506a83.748,83.748,0,0,0,9.533-9.591l.014-.016c.7-.835,1.388-1.688,2.059-2.55.079-.1.16-.2.238-.3q.974-1.262,1.9-2.563c.083-.118.167-.234.25-.352q.928-1.32,1.808-2.676l.171-.267a82.684,82.684,0,0,0,11.783-29.89h0C181.174,114.98,180.589,115,180,115Z" transform="translate(-16.875 -16.875)" style="fill:#c16b29"/><path d="M104.783,121.566a12.766,12.766,0,0,1-10.52-5.529l-7.676,18.935A12.753,12.753,0,0,1,78.794,154.2l-2.1,5.169,1.688.561-2.5,7.54.842.459h46.552q.438-.237.841-.458l-2.5-7.541,1.688-.561-15.478-38.177A12.754,12.754,0,0,1,104.783,121.566Z" transform="translate(-16.875 -16.875)" style="fill:#fadf99"/><path d="M123.277,167.924H76.725a154.416,154.416,0,0,0,14.306,6.962l-.82,2.022c1.244.533,2.463,1.024,3.624,1.451l.934-2.61a29.316,29.316,0,0,0,4.419,1.275l-.5,2.769a10.264,10.264,0,0,0,1.845.207q.318,0,.673-.035l-.284-2.825a19.289,19.289,0,0,0,4.239-1.114l.94,2.659c1.2-.433,2.477-.949,3.793-1.524l-.923-2.275A154.6,154.6,0,0,0,123.277,167.924Z" transform="translate(-16.875 -16.875)" style="fill:#fadf99"/><path d="M94.769,175.749l-.934,2.61-.976,2.728a34.362,34.362,0,0,0,5.317,1.516l.51-2.81.5-2.769A29.316,29.316,0,0,1,94.769,175.749Z" transform="translate(-16.875 -16.875)" style="fill:#b36d29"/><path d="M100.92,177.14l.284,2.825.283,2.815a24.639,24.639,0,0,0,5.561-1.408l-.949-2.687-.94-2.659A19.289,19.289,0,0,1,100.92,177.14Z" transform="translate(-16.875 -16.875)" style="fill:#b36d29"/><path d="M76.725,167.924l-.842-.459-.673,2.026a2.837,2.837,0,0,1-2.689,1.942,2.868,2.868,0,0,1-.729-.095c-.085-.023-.516-.138-1.2-.328A178.218,178.218,0,0,0,88.9,180.14l1.31-3.232.82-2.022A154.416,154.416,0,0,1,76.725,167.924Z" transform="translate(-16.875 -16.875)" style="fill:#845221"/><path d="M127.479,171.433a2.836,2.836,0,0,1-2.689-1.942l-.672-2.025q-.4.22-.841.458a154.6,154.6,0,0,1-14.308,6.962l.923,2.275,1.208,2.979a178.286,178.286,0,0,0,18.312-9.13c-.688.19-1.119.305-1.205.328A2.849,2.849,0,0,1,127.479,171.433Z" transform="translate(-16.875 -16.875)" style="fill:#e2a03b"/><path d="M92.783,63a12.776,12.776,0,0,1,3.178,25.152l3.631,8.956c.316-.141.641-.264.969-.379L114.74,61.754a12.763,12.763,0,0,1,7.684-24.117l1.694-5.1-.842-.459H76.725l-.843.459,2.5,7.54-1.688.56,9.751,24.054A12.713,12.713,0,0,1,92.783,63Z" transform="translate(-16.875 -16.875)" style="fill:#fadf99"/><path d="M76.725,32.076h46.551a154.689,154.689,0,0,0-14.307-6.962l.82-2.023c-1.244-.532-2.462-1.023-3.623-1.45l-.936,2.609a29.269,29.269,0,0,0-4.419-1.275l.5-2.768A10.154,10.154,0,0,0,99.469,20c-.211,0-.436.012-.672.035l.284,2.825a19.246,19.246,0,0,0-4.238,1.113l-.94-2.659c-1.2.434-2.478.95-3.794,1.525l.922,2.275A154.54,154.54,0,0,0,76.725,32.076Z" transform="translate(-16.875 -16.875)" style="fill:#fadf99"/><path d="M99.081,22.86,98.8,20.035l-.283-2.816a24.69,24.69,0,0,0-5.561,1.409l.95,2.686.94,2.659A19.246,19.246,0,0,1,99.081,22.86Z" transform="translate(-16.875 -16.875)" style="fill:#b36d29"/><path d="M105.23,24.25l.936-2.609.977-2.727a34.3,34.3,0,0,0-5.32-1.518l-.51,2.811-.5,2.768A29.269,29.269,0,0,1,105.23,24.25Z" transform="translate(-16.875 -16.875)" style="fill:#b36d29"/><path d="M123.276,32.076l.842.459.672-2.025a2.831,2.831,0,0,1,3.417-1.847c.086.023.517.138,1.207.329A178.08,178.08,0,0,0,111.1,19.86l-1.311,3.231-.82,2.023A154.689,154.689,0,0,1,123.276,32.076Z" transform="translate(-16.875 -16.875)" style="fill:#845221"/><path d="M75.21,30.51l.672,2.025.843-.459a154.54,154.54,0,0,1,14.306-6.962l-.922-2.275L88.9,19.86a178.01,178.01,0,0,0-18.314,9.131c.689-.19,1.12-.3,1.2-.328A2.834,2.834,0,0,1,75.21,30.51Z" transform="translate(-16.875 -16.875)" style="fill:#e2a03b"/><path d="M137.474,85.573,109.505,96.912a12.794,12.794,0,0,1,7.809,9.342L159.365,123.3l.56-1.687,7.54,2.5c.148-.269.3-.549.459-.841V113.229a42.075,42.075,0,0,1-22.7-16.676A12.78,12.78,0,0,1,137.474,85.573Z" transform="translate(-16.875 -16.875)" style="fill:#fadf99"/><path d="M172.507,114.32a41.709,41.709,0,0,1-4.583-1.091v10.047C169.256,120.821,170.945,117.6,172.507,114.32Z" transform="translate(-16.875 -16.875)" style="fill:#fadf99"/><path d="M167.924,123.276c-.159.292-.311.572-.459.841l2.026.673a2.836,2.836,0,0,1,1.847,3.417c-.023.086-.138.517-.328,1.205,1.368-2.416,4.719-8.463,7.456-14.451a42.185,42.185,0,0,1-5.959-.641C170.945,117.6,169.256,120.821,167.924,123.276Z" transform="translate(-16.875 -16.875)" style="fill:#845221"/><path d="M96.28,99.257,40.635,76.7l-.56,1.688-7.54-2.5-.459.843v46.551c.159.292.311.572.459.842l7.54-2.5.56,1.688,53.594-21.727A12.86,12.86,0,0,1,96.28,99.257Zm-45.5,13.309A12.783,12.783,0,1,1,63.566,99.783,12.783,12.783,0,0,1,50.783,112.566Z" transform="translate(-16.875 -16.875)" style="fill:#fadf99"/><path d="M32.076,123.276V76.725a154.54,154.54,0,0,0-6.962,14.306l-2.023-.82c-.532,1.245-1.023,2.463-1.45,3.624l2.609.936a29.255,29.255,0,0,0-1.275,4.417l-2.768-.5A10.174,10.174,0,0,0,20,100.531q0,.318.035.673l2.825-.285a19.186,19.186,0,0,0,1.114,4.239l-2.659.941c.433,1.2.949,2.477,1.524,3.792l2.275-.922A154.689,154.689,0,0,0,32.076,123.276Z" transform="translate(-16.875 -16.875)" style="fill:#fadf99"/><path d="M24.25,94.771l-2.609-.936-2.727-.978A34.29,34.29,0,0,0,17.4,98.176l2.811.51,2.768.5A29.255,29.255,0,0,1,24.25,94.771Z" transform="translate(-16.875 -16.875)" style="fill:#b36d29"/><path d="M22.86,100.919l-2.825.285-2.816.284a24.73,24.73,0,0,0,1.41,5.561l2.686-.95,2.659-.941A19.186,19.186,0,0,1,22.86,100.919Z" transform="translate(-16.875 -16.875)" style="fill:#b36d29"/><path d="M32.076,76.725l.459-.843L30.51,75.21a2.835,2.835,0,0,1-1.847-3.418c.023-.085.138-.516.328-1.2A178.01,178.01,0,0,0,19.86,88.9l3.231,1.31,2.023.82A154.54,154.54,0,0,1,32.076,76.725Z" transform="translate(-16.875 -16.875)" style="fill:#845221"/><path d="M30.51,124.79l2.025-.672c-.148-.27-.3-.55-.459-.842a154.689,154.689,0,0,1-6.962-14.307l-2.275.922L19.86,111.1a178.08,178.08,0,0,0,9.132,18.314c-.191-.69-.306-1.121-.329-1.207A2.835,2.835,0,0,1,30.51,124.79Z" transform="translate(-16.875 -16.875)" style="fill:#e2a03b"/><path d="M117.52,107.867c.022.3.046.607.046.916a12.776,12.776,0,0,1-8.38,11.988l15.464,38.146,2.345-.779,2.088,6.291a6.3,6.3,0,0,0,.947.28c.179.036.357.054.536.075l1-.3,32.917-32.917c.1-.35.2-.684.3-1-.021-.179-.039-.357-.075-.536a6.3,6.3,0,0,0-.28-.947L158.138,127l.779-2.346ZM134.783,148a12.783,12.783,0,1,1,12.783-12.783A12.783,12.783,0,0,1,134.783,148Z" transform="translate(-16.875 -16.875)" style="fill:#fadf99"/><path d="M117.52,107.867l41.4,16.782.448-1.348-42.051-17.047A12.95,12.95,0,0,1,117.52,107.867Z" transform="translate(-16.875 -16.875)" style="fill:#e7bf78"/><path d="M109.186,120.771a12.766,12.766,0,0,1-1.362.416L123.3,159.364l1.348-.447Z" transform="translate(-16.875 -16.875)" style="fill:#e7bf78"/><path d="M129.083,164.429l.237.715c.38-.109.8-.231,1.246-.36-.179-.021-.357-.039-.536-.075A6.3,6.3,0,0,1,129.083,164.429Z" transform="translate(-16.875 -16.875)" style="fill:#e7bf78"/><path d="M164.784,130.566c.129-.443.251-.866.36-1.246l-.715-.237a6.3,6.3,0,0,1,.28.947C164.745,130.209,164.763,130.387,164.784,130.566Z" transform="translate(-16.875 -16.875)" style="fill:#e7bf78"/><path d="M164.488,131.571l-32.917,32.917a154.547,154.547,0,0,0,15.039-5.193l.851,2.009c1.256-.5,2.464-1.017,3.588-1.536l-1.185-2.506a29.5,29.5,0,0,0,4.028-2.224l1.6,2.314a10.226,10.226,0,0,0,1.451-1.159c.149-.149.3-.316.451-.5l-2.2-1.8a19.227,19.227,0,0,0,2.211-3.785l2.544,1.215c.542-1.155,1.08-2.423,1.605-3.76l-2.261-.957A154.547,154.547,0,0,0,164.488,131.571Z" transform="translate(-16.875 -16.875)" style="fill:#fadf99"/><path d="M155.2,153.9l2.2,1.8,2.192,1.79a24.746,24.746,0,0,0,2.935-4.927l-2.571-1.229-2.544-1.215A19.227,19.227,0,0,1,155.2,153.9Z" transform="translate(-16.875 -16.875)" style="fill:#b36d29"/><path d="M149.864,157.262l1.185,2.506,1.237,2.619a34.86,34.86,0,0,0,4.832-2.687l-1.625-2.348-1.6-2.314A29.5,29.5,0,0,1,149.864,157.262Z" transform="translate(-16.875 -16.875)" style="fill:#b36d29"/><path d="M131.571,164.488l-1,.3c-.443.129-.866.251-1.246.36l-.237-.715L127,158.138l-2.345.779-1.348.447-1.688.561,2.5,7.541.672,2.025a2.833,2.833,0,0,0,3.417,1.847c.086-.023.517-.138,1.205-.328a178.34,178.34,0,0,0,19.407-6.494l-1.358-3.212-.851-2.009A154.547,154.547,0,0,1,131.571,164.488Z" transform="translate(-16.875 -16.875)" style="fill:#845221"/><path d="M169.491,124.79l-2.026-.673-7.54-2.5-.56,1.687-.448,1.348L158.138,127l6.291,2.088.715.237c-.109.38-.231.8-.36,1.246-.094.321-.192.655-.3,1a154.547,154.547,0,0,1-5.193,15.039l2.261.957,2.96,1.252a178.34,178.34,0,0,0,6.494-19.407c.19-.688.305-1.119.328-1.205A2.836,2.836,0,0,0,169.491,124.79Z" transform="translate(-16.875 -16.875)" style="fill:#e2a03b"/><path d="M97.555,98.244c.25-.172.511-.327.773-.481l-3.783-9.332A12.765,12.765,0,0,1,85.24,65.479l-9.89-24.4-2.345.778-2.089-6.29a6.285,6.285,0,0,0-.946-.28c-.174-.035-.347-.058-.521-.079l-1.02.3-11.5,11.5c.1,0,.193-.015.291-.015A12.783,12.783,0,1,1,44.434,59.783c0-.1.012-.193.014-.291l-8.936,8.937c-.1.35-.2.684-.3,1,.021.178.039.357.075.536a6.285,6.285,0,0,0,.28.946l6.29,2.089-.778,2.345Z" transform="translate(-16.875 -16.875)" style="fill:#fadf99"/><path d="M94.545,88.431l3.783,9.332a12.8,12.8,0,0,1,1.264-.655l-3.631-8.956A12.936,12.936,0,0,1,94.545,88.431Z" transform="translate(-16.875 -16.875)" style="fill:#e7bf78"/><path d="M97.555,98.244,41.083,75.35,40.635,76.7,96.28,99.257A12.7,12.7,0,0,1,97.555,98.244Z" transform="translate(-16.875 -16.875)" style="fill:#e7bf78"/><path d="M85.24,65.479a12.935,12.935,0,0,1,1.209-.79L76.7,40.635l-1.348.448Z" transform="translate(-16.875 -16.875)" style="fill:#e7bf78"/><path d="M70.916,35.571l-.237-.715c-.374.108-.792.228-1.23.356.174.021.347.044.521.079A6.285,6.285,0,0,1,70.916,35.571Z" transform="translate(-16.875 -16.875)" style="fill:#e7bf78"/><path d="M35.216,69.434c-.129.443-.251.866-.36,1.245l.715.237a6.285,6.285,0,0,1-.28-.946C35.255,69.791,35.237,69.612,35.216,69.434Z" transform="translate(-16.875 -16.875)" style="fill:#e7bf78"/><path d="M35.512,68.429l8.936-8.937A12.769,12.769,0,0,1,56.926,47.015l11.5-11.5A154.3,154.3,0,0,0,53.39,40.706L52.54,38.7c-1.257.5-2.465,1.018-3.589,1.537l1.184,2.507a29.3,29.3,0,0,0-4.026,2.221l-1.6-2.312a10.183,10.183,0,0,0-1.452,1.159c-.15.149-.3.317-.452.5l2.2,1.8a19.229,19.229,0,0,0-2.21,3.785l-2.545-1.216c-.542,1.156-1.08,2.423-1.6,3.76l2.262.957A154.05,154.05,0,0,0,35.512,68.429Z" transform="translate(-16.875 -16.875)" style="fill:#fadf99"/><path d="M50.135,42.739l-1.184-2.507-1.237-2.619A34.157,34.157,0,0,0,42.881,40.3l1.627,2.348,1.6,2.312A29.3,29.3,0,0,1,50.135,42.739Z" transform="translate(-16.875 -16.875)" style="fill:#b36d29"/><path d="M44.8,46.1l-2.2-1.8-2.191-1.789a24.717,24.717,0,0,0-2.935,4.927l2.571,1.228,2.545,1.216A19.229,19.229,0,0,1,44.8,46.1Z" transform="translate(-16.875 -16.875)" style="fill:#b36d29"/><path d="M68.429,35.512l1.02-.3c.438-.128.856-.248,1.23-.356l.237.715,2.089,6.29,2.345-.778,1.348-.448,1.688-.56-2.5-7.54L75.21,30.51a2.834,2.834,0,0,0-3.418-1.847c-.085.023-.516.138-1.2.328a178.144,178.144,0,0,0-19.406,6.493L52.54,38.7l.85,2.011A154.3,154.3,0,0,1,68.429,35.512Z" transform="translate(-16.875 -16.875)" style="fill:#845221"/><path d="M30.51,75.21l2.025.672,7.54,2.5.56-1.688.448-1.348.778-2.345-6.29-2.089-.715-.237c.109-.379.231-.8.36-1.245.094-.321.192-.655.3-1A154.05,154.05,0,0,1,40.706,53.39l-2.262-.957-2.96-1.252a178.144,178.144,0,0,0-6.493,19.406c-.19.689-.3,1.12-.328,1.2A2.835,2.835,0,0,0,30.51,75.21Z" transform="translate(-16.875 -16.875)" style="fill:#e2a03b"/><path d="M130.551,35.212c-.174.021-.347.044-.521.079a6.3,6.3,0,0,0-.947.28l-1.418,4.271a12.768,12.768,0,0,1-11.614,22.45L102.286,96.248a12.773,12.773,0,0,1,5.059.01l30.126-12.214a12.725,12.725,0,0,1,1.054-4.417A42.321,42.321,0,0,1,138,73a41.762,41.762,0,0,1,7.347-23.712L131.571,35.512Z" transform="translate(-16.875 -16.875)" style="fill:#fadf99"/><path d="M114.74,61.754,100.561,96.729a12.5,12.5,0,0,1,1.725-.481l13.765-33.956A12.738,12.738,0,0,1,114.74,61.754Z" transform="translate(-16.875 -16.875)" style="fill:#e7bf78"/><path d="M129.083,35.571a6.3,6.3,0,0,1,.947-.28c.174-.035.347-.058.521-.079-.438-.128-.856-.248-1.231-.356Z" transform="translate(-16.875 -16.875)" style="fill:#e7bf78"/><path d="M109.505,96.912l27.969-11.339c-.016-.263-.04-.523-.04-.79,0-.249.023-.493.037-.739L107.345,96.258A12.6,12.6,0,0,1,109.505,96.912Z" transform="translate(-16.875 -16.875)" style="fill:#e7bf78"/><path d="M151.328,40.049c-1.156-.542-2.424-1.08-3.761-1.6l-.957,2.262a154.21,154.21,0,0,0-15.039-5.194l13.776,13.776A42.183,42.183,0,0,1,150.74,42.9c-.2-.1-.4-.2-.627-.308Z" transform="translate(-16.875 -16.875)" style="fill:#fadf99"/><path d="M151.328,40.049l-1.215,2.545c.223.106.427.208.627.308a42.206,42.206,0,0,1,4.664-3.919c-.819-.488-1.765-.987-2.849-1.5Z" transform="translate(-16.875 -16.875)" style="fill:#b36d29"/><path d="M124.79,30.51l-.672,2.025-1.694,5.1a12.7,12.7,0,0,1,5.241,2.2l1.418-4.271.237-.715c.375.108.793.228,1.231.356l1.02.3a154.21,154.21,0,0,1,15.039,5.194l.957-2.262,1.252-2.96a178.02,178.02,0,0,0-19.4-6.492c-.69-.191-1.121-.306-1.207-.329A2.831,2.831,0,0,0,124.79,30.51Z" transform="translate(-16.875 -16.875)" style="fill:#e2a03b"/><path d="M77.144,154.492a13.008,13.008,0,0,1-1.361.074,12.783,12.783,0,1,1,9.826-20.956l7.75-19.115a12.69,12.69,0,0,1-.231-10.944l-52.045,21.1L41.861,127l-6.29,2.088a6.3,6.3,0,0,0-.28.947c-.036.178-.054.357-.075.536.094.321.192.655.3,1l32.917,32.918,1,.295c.179-.021.358-.039.536-.075a6.285,6.285,0,0,0,.946-.28l2.089-6.291,2.345.779Z" transform="translate(-16.875 -16.875)" style="fill:#fadf99"/><path d="M77.144,154.492l-1.794,4.425,1.348.447,2.1-5.169A12.822,12.822,0,0,1,77.144,154.492Z" transform="translate(-16.875 -16.875)" style="fill:#e7bf78"/><path d="M86.587,134.972l7.676-18.935a12.747,12.747,0,0,1-.9-1.542l-7.75,19.115A12.649,12.649,0,0,1,86.587,134.972Z" transform="translate(-16.875 -16.875)" style="fill:#e7bf78"/><path d="M69.434,164.784l1.245.36.237-.715a6.285,6.285,0,0,1-.946.28C69.792,164.745,69.613,164.763,69.434,164.784Z" transform="translate(-16.875 -16.875)" style="fill:#e7bf78"/><path d="M93.128,103.551a12.73,12.73,0,0,1,1.1-1.976L40.635,123.3l.448,1.348Z" transform="translate(-16.875 -16.875)" style="fill:#e7bf78"/><path d="M35.571,129.083l-.715.237c.109.379.231.8.36,1.246.021-.179.039-.358.075-.536A6.3,6.3,0,0,1,35.571,129.083Z" transform="translate(-16.875 -16.875)" style="fill:#e7bf78"/><path d="M68.429,164.489,35.512,131.571a154.21,154.21,0,0,0,5.194,15.039l-2.01.851c.5,1.256,1.017,2.464,1.536,3.588l2.507-1.184a29.186,29.186,0,0,0,2.222,4.026l-2.313,1.6a10.226,10.226,0,0,0,1.159,1.451c.149.15.317.3.5.451l1.8-2.2a19.194,19.194,0,0,0,3.785,2.211l-1.216,2.544c1.156.542,2.423,1.08,3.761,1.605l.956-2.261A154.408,154.408,0,0,0,68.429,164.489Z" transform="translate(-16.875 -16.875)" style="fill:#fadf99"/><path d="M42.739,149.865l-2.507,1.184-2.619,1.236a34.012,34.012,0,0,0,2.688,4.834l2.347-1.626,2.313-1.6A29.186,29.186,0,0,1,42.739,149.865Z" transform="translate(-16.875 -16.875)" style="fill:#b36d29"/><path d="M46.1,155.2l-1.8,2.2-1.789,2.192a24.734,24.734,0,0,0,4.926,2.935l1.229-2.571,1.216-2.544A19.194,19.194,0,0,1,46.1,155.2Z" transform="translate(-16.875 -16.875)" style="fill:#b36d29"/><path d="M35.512,131.571c-.1-.35-.2-.684-.3-1-.129-.444-.251-.867-.36-1.246l.715-.237L41.861,127l-.778-2.345-.448-1.348-.56-1.688-7.54,2.5-2.025.672a2.835,2.835,0,0,0-1.847,3.417c.023.086.138.517.329,1.207a178.02,178.02,0,0,0,6.492,19.405l3.212-1.358,2.01-.851A154.21,154.21,0,0,1,35.512,131.571Z" transform="translate(-16.875 -16.875)" style="fill:#845221"/><path d="M72.521,171.433a2.837,2.837,0,0,0,2.689-1.942l.673-2.026,2.5-7.54-1.688-.561-1.348-.447-2.345-.779-2.089,6.291-.237.715-1.245-.36-1-.295a154.408,154.408,0,0,1-15.039-5.194l-.956,2.261-1.253,2.96a178.269,178.269,0,0,0,19.407,6.494c.688.19,1.119.305,1.2.328A2.868,2.868,0,0,0,72.521,171.433Z" transform="translate(-16.875 -16.875)" style="fill:#e2a03b"/><path d="M100.561,96.729c-.328.115-.653.238-.969.379a12.8,12.8,0,0,0-1.264.655c-.262.154-.523.309-.773.481a12.7,12.7,0,0,0-1.275,1.013,12.86,12.86,0,0,0-2.051,2.318,12.779,12.779,0,1,0,23.337,7.208c0-.309-.024-.612-.046-.916a12.95,12.95,0,0,0-.206-1.613,12.794,12.794,0,0,0-7.809-9.342,12.6,12.6,0,0,0-2.16-.654,12.773,12.773,0,0,0-5.059-.01A12.5,12.5,0,0,0,100.561,96.729Z" transform="translate(-16.875 -16.875)" style="fill:#ac2924"/><circle cx="33.908" cy="82.908" r="12.783" style="fill:#801e19"/><path d="M85.609,133.61a12.782,12.782,0,1,0-9.826,20.956,13.008,13.008,0,0,0,1.361-.074,12.764,12.764,0,0,0,9.443-19.52A12.649,12.649,0,0,0,85.609,133.61Z" transform="translate(-16.875 -16.875)" style="fill:#c94528"/><path d="M122.424,37.637a12.792,12.792,0,1,0,5.241,2.2A12.7,12.7,0,0,0,122.424,37.637Z" transform="translate(-16.875 -16.875)" style="fill:#ac2924"/><path d="M137.471,84.044c-.014.246-.037.49-.037.739,0,.267.024.527.04.79a12.78,12.78,0,0,0,7.749,10.98,41.754,41.754,0,0,1-6.7-16.926A12.725,12.725,0,0,0,137.471,84.044Z" transform="translate(-16.875 -16.875)" style="fill:#801e19"/><path d="M95.961,88.152a12.775,12.775,0,1,0-9.512-23.463,12.935,12.935,0,0,0-1.209.79,12.747,12.747,0,0,0,9.305,22.952A12.936,12.936,0,0,0,95.961,88.152Z" transform="translate(-16.875 -16.875)" style="fill:#c94528"/><circle cx="117.908" cy="118.342" r="12.783" style="fill:#801e19"/><path d="M57.217,72.566a12.783,12.783,0,0,0,0-25.566c-.1,0-.193.012-.291.015A12.769,12.769,0,0,0,44.448,59.492c0,.1-.014.193-.014.291A12.783,12.783,0,0,0,57.217,72.566Z" transform="translate(-16.875 -16.875)" style="fill:#ac2924"/></svg>