<?xml version="1.0" encoding="utf-8"?>
<svg id="onion" xmlns="http://www.w3.org/2000/svg" viewBox="0 0 16 16" fill="currentColor">
  <g>
    <path transform="rotate(0,8,8) translate(2.25625201985216,0) scale(0.499999940395362,0.499999940395362)  " d="M6.0804845,17.134061L5.9494625,17.255516C5.6009151,17.576868,5.2290774,17.911583,4.8364144,18.265024L4.1214062,18.911021C3.1283775,19.810006 1.9543463,21.214975 2.0023514,22.799997 2.1203648,26.765022 8.3584777,29.88697 10.320486,29.985969 10.786497,30.008003 11.260505,30.003974 11.727523,29.963996 15.694601,29.63697 18.551645,28.349006 19.98868,26.239997 21.152672,24.531015 21.064688,22.753 20.829668,21.971017 20.421671,20.615976 19.551663,19.573984 18.090637,18.693003 17.397499,18.274569 16.818134,17.85003 16.334423,17.428751L16.330515,17.425282 15.015295,19.37297C14.848295,19.619963 14.579295,19.779958 14.282295,19.807958 13.985296,19.834956 13.692296,19.732959 13.480297,19.521965L11.365299,17.421025 10.032301,19.375969C9.8653012,19.621963 9.598301,19.779958 9.3033019,19.807958 9.2703019,19.810958 9.2383014,19.812957 9.2063018,19.812957 8.9443017,19.812957 8.6913024,19.70996 8.5043031,19.524966z M6.5834232,6.1079845C9.5004951,9.490979 9.1884786,12.237011 9.1704732,12.373974 9.0799199,13.574367 8.5150586,14.572565 7.5908695,15.618817L7.498274,15.721726 9.0563022,17.25903 10.3913,15.300085C10.5583,15.055092 10.8263,14.897096 11.122299,14.869097 11.4153,14.839098 11.711299,14.945095 11.922299,15.155089L14.033296,17.25203 14.946652,15.900078 14.815581,15.704253C13.810046,14.129086 13.929191,12.815876 14.013573,12.364025 14.050561,11.768017 14.409576,9.9669921 16.970623,6.1709728 16.226229,6.5561123 15.489432,7.1773546 14.822353,7.8660586L14.519913,8.1885879 14.509183,8.203913C14.475217,8.2483051,14.437727,8.2895472,14.397229,8.327318L14.392012,8.3317959 14.180812,8.5710042C13.362545,9.5242584 12.705032,10.497509 12.355524,11.091015 12.156547,11.430981 11.770523,11.61903 11.385507,11.580029 10.993502,11.536999 10.664517,11.268994 10.542505,10.893994 10.119004,9.5906799 9.5775891,8.6118009 8.9846698,7.879142L8.8603536,7.7300818 8.8446504,7.71227 8.8440286,7.7114098 8.7276021,7.5799916C8.034711,6.8212411,7.2869416,6.3694894,6.5834232,6.1079845z M11.406662,2.8779845C10.555062,4.5732881,10.53907,6.029335,10.579977,6.6271939L10.583706,6.6763043 10.647875,6.7554202C11.025888,7.2416384 11.383889,7.8057625 11.709518,8.4599736 12.013147,8.0467598 12.371522,7.5897136 12.775522,7.1277845L12.778805,7.1240861 12.788702,7.0071404C12.863098,5.7671225,12.099974,4.0905406,11.406662,2.8779845z M11.396662,0C11.714676,0.00099992752 12.013689,0.15299916 12.200697,0.40899754 12.43502,0.72883987 13.96452,2.8753752 14.557541,5.1647342L14.603277,5.3552259 14.759711,5.231747C15.864895,4.3823366 17.119776,3.7660053 18.434639,3.7660052 18.748638,3.7660053 19.061663,3.802016 19.362663,3.8729998 19.690672,3.9489886 19.958651,4.1850115 20.07468,4.5020282 20.19068,4.818007 20.140661,5.1709732 19.938662,5.4420303 16.1416,10.562024 16.010586,12.464001 16.010586,12.482983 16.006588,12.563 15.991603,12.688977 15.9696,12.766003 15.960662,12.80658 15.758406,13.759351 16.799135,15.054719L16.885428,15.157694 16.893023,15.164703C16.916279,15.188438,16.938171,15.213163,16.958675,15.23876L16.977913,15.265363 17.114866,15.416067C17.579811,15.90805 18.226383,16.438486 19.123646,16.97999 21.008688,18.117991 22.192698,19.560984 22.744709,21.394967 23.163723,22.786996 23.126703,25.185981 21.641693,27.365974 20.394663,29.195991 17.689631,31.479009 11.891527,31.958989 11.551525,31.985967 11.208502,32.000005 10.865509,32.000005 10.649502,32.000005 10.435509,31.995 10.220509,31.984014 7.3474437,31.838018 0.15832574,28.04499 0.0023171277,22.860971 -0.053683501,21.003 0.90635483,19.12501 2.7773582,17.427988L3.1681191,17.076267 3.1703087,17.074035 5.3991738,15.020875 5.4710332,14.949946C6.5084048,13.915381 7.1122156,13.079892 7.1824323,12.169018 7.1974474,12.00697 7.4374415,9.1029789 3.2143775,5.6179947 2.9183825,5.3729994 2.7883755,4.9799942 2.8803874,4.6070082 2.9723691,4.2340227 3.2703782,3.9469745 3.6453847,3.8679949 3.6893917,3.8579853 4.0994025,3.7760151 4.7204152,3.7760149 5.5613643,3.7760151 7.0082446,3.9332719 8.484212,4.8160584L8.676098,4.9360592 8.6919919,4.8299406C8.8934823,3.5940559 9.4012929,2.0166767 10.589626,0.40699768 10.778635,0.14999914 11.092649,0.018999815 11.396662,0z" />
  </g>
</svg>
